<?xml version="1.0" encoding="utf-8"?>
<svg version="1.1" xmlns:xlink="http://www.w3.org/1999/xlink" width="12px" height="12px" viewBox="110 115  12 12" xmlns="http://www.w3.org/2000/svg">
  <path d="M 116 115  C 119.36 115  122 117.64  122 121  C 122 124.36  119.36 127  116 127  C 112.64 127  110 124.36  110 121  C 110 117.64  112.64 115  116 115  Z " fill-rule="nonzero" fill="#ffffff" stroke="none" />
  <path d="M 116 115.5  C 119.08 115.5  121.5 117.92  121.5 121  C 121.5 124.08  119.08 126.5  116 126.5  C 112.92 126.5  110.5 124.08  110.5 121  C 110.5 117.92  112.92 115.5  116 115.5  Z " stroke-width="1" stroke="#797979" fill="none" />
  <path d="M 116 124  C 114.32 124  113 122.68  113 121  C 113 119.32  114.32 118  116 118  C 117.68 118  119 119.32  119 121  C 119 122.68  117.68 124  116 124  " fill-rule="nonzero" fill="#797979" stroke="none" />
</svg>