<?xml version="1.0" encoding="utf-8"?>
<svg version="1.1" xmlns:xlink="http://www.w3.org/1999/xlink" width="12px" height="12px" viewBox="244 115  12 12" xmlns="http://www.w3.org/2000/svg">
  <path d="M 250 115  C 253.36 115  256 117.64  256 121  C 256 124.36  253.36 127  250 127  C 246.64 127  244 124.36  244 121  C 244 117.64  246.64 115  250 115  Z " fill-rule="nonzero" fill="#ffffff" stroke="none" />
  <path d="M 250 115.5  C 253.08 115.5  255.5 117.92  255.5 121  C 255.5 124.08  253.08 126.5  250 126.5  C 246.92 126.5  244.5 124.08  244.5 121  C 244.5 117.92  246.92 115.5  250 115.5  Z " stroke-width="1" stroke="#797979" fill="none" />
  <path d="M 250 124  C 248.32 124  247 122.68  247 121  C 247 119.32  248.32 118  250 118  C 251.68 118  253 119.32  253 121  C 253 122.68  251.68 124  250 124  " fill-rule="nonzero" fill="#797979" stroke="none" />
</svg>