<?xml version="1.0" encoding="utf-8"?>
<svg version="1.1" xmlns:xlink="http://www.w3.org/1999/xlink" width="18px" height="15px" xmlns="http://www.w3.org/2000/svg">
  <g transform="matrix(1 0 0 1 -1046 -237 )">
    <path d="M 15.0234515935057 8.23508522727273  C 15.1677690920024 8.29190340909091  15.2399278412508 8.39488636363636  15.2399278412508 8.54403409090909  L 15.2399278412508 11.9318181818182  C 15.2399278412508 12.7769886363636  14.9350571256765 13.4996448863636  14.325315694528 14.0997869318182  C 13.7155742633794 14.6999289772727  12.9813589897775 15  12.1226698737222 15  L 3.11725796752856 15  C 2.25856885147324 15  1.52435357787132 14.6999289772727  0.91461214672279 14.0997869318182  C 0.304870715574263 13.4996448863636  0 12.7769886363636  0 11.9318181818182  L 0 3.06818181818182  C 0 2.22301136363636  0.304870715574263 1.50035511363636  0.91461214672279 0.900213068181819  C 1.52435357787132 0.300071022727271  2.25856885147324 0  3.11725796752856 0  L 12.1226698737222 0  C 12.5772699939868 0  12.9993986770896 0.0887784090909083  13.3890559230307 0.266335227272727  C 13.4972940469032 0.316051136363635  13.5622369212267 0.397727272727272  13.5838845460012 0.511363636363636  C 13.6055321707757 0.632102272727272  13.5730607336139 0.735085227272727  13.4864702345159 0.8203125  L 12.9561034275406 1.34232954545455  C 12.8839446782922 1.41335227272727  12.8009621166566 1.44886363636364  12.7071557426338 1.44886363636364  C 12.6855081178593 1.44886363636364  12.6530366806975 1.44176136363636  12.6097414311485 1.42755681818182  C 12.4437763078773 1.38494318181818  12.2814191220686 1.36363636363636  12.1226698737222 1.36363636363636  L 3.11725796752856 1.36363636363636  C 2.64101022248948 1.36363636363636  2.23331328923632 1.53053977272727  1.89416716776909 1.86434659090909  C 1.55502104630186 2.19815340909091  1.38544798556825 2.59943181818182  1.38544798556825 3.06818181818182  L 1.38544798556825 11.9318181818182  C 1.38544798556825 12.4005681818182  1.55502104630186 12.8018465909091  1.89416716776909 13.1356534090909  C 2.23331328923632 13.4694602272727  2.64101022248948 13.6363636363636  3.11725796752856 13.6363636363636  L 12.1226698737222 13.6363636363636  C 12.5989176187613 13.6363636363636  13.0066145520144 13.4694602272727  13.3457606734817 13.1356534090909  C 13.6849067949489 12.8018465909091  13.8544798556825 12.4005681818182  13.8544798556825 11.9318181818182  L 13.8544798556825 9.22585227272727  C 13.8544798556825 9.13352272727273  13.8869512928443 9.05539772727273  13.9518941671678 8.99147727272727  L 14.6446181599519 8.30965909090909  C 14.7167769092002 8.23863636363636  14.7997594708358 8.203125  14.8935658448587 8.203125  C 14.9368610944077 8.203125  14.9801563439567 8.21377840909091  15.0234515935057 8.23508522727273  Z M 18 2.72727272727273  C 18 2.96164772727273  17.913409500902 3.1640625  17.740228502706 3.33451704545455  L 8.92964521948286 12.0063920454545  C 8.75646422128683 12.1768465909091  8.55081178592905 12.2620738636364  8.3126879134095 12.2620738636364  C 8.07456404088996 12.2620738636364  7.86891160553217 12.1768465909091  7.69573060733614 12.0063920454545  L 3.0414912808178 7.42542613636364  C 2.86831028262177 7.25497159090909  2.78171978352375 7.05255681818182  2.78171978352375 6.81818181818182  C 2.78171978352375 6.58380681818182  2.86831028262177 6.38139204545454  3.0414912808178 6.2109375  L 4.23211064341551 5.0390625  C 4.40529164161155 4.86860795454546  4.61094407696933 4.78338068181818  4.84906794948888 4.78338068181818  C 5.08719182200842 4.78338068181818  5.29284425736621 4.86860795454546  5.46602525556224 5.0390625  L 8.3126879134095 7.84090909090909  L 15.3156945279615 0.948153409090909  C 15.4888755261575 0.777698863636364  15.6945279615153 0.692471590909091  15.9326518340349 0.692471590909091  C 16.1707757065544 0.692471590909091  16.3764281419122 0.777698863636364  16.5496091401082 0.948153409090909  L 17.740228502706 2.12002840909091  C 17.913409500902 2.29048295454545  18 2.49289772727273  18 2.72727272727273  Z " fill-rule="nonzero" fill="#d7d7d7" stroke="none" transform="matrix(1 0 0 1 1046 237 )" />
  </g>
</svg>