<?xml version="1.0" encoding="utf-8"?>
<svg version="1.1" xmlns:xlink="http://www.w3.org/1999/xlink" width="35px" height="34px" xmlns="http://www.w3.org/2000/svg">
  <g transform="matrix(1 0 0 1 -393 -230 )">
    <path d="M 25.4296875 29.8437303087587  L 23.9152644230769 20.8241965973535  L 30.3515625 14.461247637051  L 21.4753605769231 13.1329552614997  L 17.5 4.94896030245746  L 13.5246394230769 13.1329552614997  L 4.6484375 14.461247637051  L 11.0847355769231 20.8241965973535  L 9.54927884615384 29.8437303087587  L 17.5 25.5803402646503  L 25.4296875 29.8437303087587  Z M 33.8221153846154 12.1902961562697  C 34.6073717948718 12.3188405797101  35 12.6473429951691  35 13.1758034026465  C 35 13.4900231043898  34.8177083333333 13.8328082335644  34.453125 14.2041587901701  L 26.8179086538462 21.7882797731569  L 28.6268028846154 32.5003150598614  C 28.6408253205128 32.6002940558706  28.6478365384615 32.7431211930267  28.6478365384615 32.9287964713296  C 28.6478365384615 33.6429321571098  28.3603766025641 34  27.7854567307692 34  C 27.519030448718 34  27.2385817307692 33.9143037177064  26.9441105769231 33.7429111531191  L 17.5 28.6868304977946  L 8.05588942307692 33.7429111531191  C 7.74739583333333 33.9143037177064  7.46694711538461 34  7.21454326923077 34  C 6.92007211538461 34  6.69921875 33.8964503255619  6.55198317307692 33.6893509766856  C 6.40474759615385 33.4822516278093  6.33112980769231 33.2287334593573  6.33112980769231 32.9287964713296  C 6.33112980769231 32.8431001890359  6.34515224358974 32.7002730518799  6.37319711538461 32.5003150598614  L 8.18209134615385 21.7882797731569  L 0.525841346153846 14.2041587901701  C 0.175280448717949 13.8185255198488  0 13.4757403906742  0 13.1758034026465  C 0 12.6473429951691  0.392628205128205 12.3188405797101  1.17788461538462 12.1902961562697  L 11.7367788461538 10.6263390044108  L 16.4693509615385 0.878386893509765  C 16.7357772435897 0.29279563116992  17.0793269230769 0  17.5 0  C 17.9206730769231 0  18.2642227564103 0.29279563116992  18.5306490384615 0.878386893509765  L 23.2632211538462 10.6263390044108  L 33.8221153846154 12.1902961562697  Z " fill-rule="nonzero" fill="#ffff00" stroke="none" transform="matrix(1 0 0 1 393 230 )" />
  </g>
</svg>