<?xml version="1.0" encoding="utf-8"?>
<svg version="1.1" xmlns:xlink="http://www.w3.org/1999/xlink" width="35px" height="34px" xmlns="http://www.w3.org/2000/svg">
  <g transform="matrix(1 0 0 1 -340 -230 )">
    <path d="M 23.9152644230769 20.8241965973535  L 24.9459134615385 19.8172652804033  L 30.3515625 14.461247637051  L 22.8635817307692 13.3471959672338  L 21.4753605769231 13.1329552614997  L 20.8443509615385 11.8475110270951  L 17 4.94896030245746  L 17 25.5803402646503  L 18.7409855769231 26.244486452426  L 25.4296875 29.8437303087587  L 24.1676682692308 22.2381852551985  L 23.9152644230769 20.8241965973535  Z M 34.9579326923077 12.9294265910523  C 35.0841346153846 13.3222012182315  34.9158653846154 13.7471119512707  34.453125 14.2041587901701  L 26.8179086538462 21.7882797731569  L 28.6268028846154 32.5003150598614  C 28.6969150641026 32.9716446124764  28.6548477564103 33.3394244906532  28.5006009615385 33.6036546943919  C 28.3463541666667 33.8678848981306  28.1079727564103 34  27.7854567307692 34  C 27.5470753205128 34  27.2666266025641 33.9143037177064  26.9441105769231 33.7429111531191  L 17.5 28.6868304977946  L 8.05588942307692 33.7429111531191  C 7.7333733974359 33.9143037177064  7.45292467948718 34  7.21454326923077 34  C 6.89202724358974 34  6.65364583333333 33.8678848981306  6.49939903846154 33.6036546943919  C 6.34515224358974 33.3394244906532  6.30308493589744 32.9716446124764  6.37319711538461 32.5003150598614  L 8.18209134615385 21.7882797731569  L 0.525841346153846 14.2041587901701  C 0.0771233974358974 13.7471119512707  -0.0841346153846154 13.3222012182315  0.0420673076923077 12.9294265910523  C 0.168269230769231 12.5366519638731  0.546875 12.2902751522789  1.17788461538462 12.1902961562697  L 11.7367788461538 10.6263390044108  L 16.4693509615385 0.878386893509765  C 16.7497996794872 0.29279563116992  17.0933493589744 0  17.5 0  C 17.8926282051282 0  18.2361778846154 0.29279563116992  18.5306490384615 0.878386893509765  L 23.2632211538462 10.6263390044108  L 33.8221153846154 12.1902961562697  C 34.453125 12.2902751522789  34.8317307692308 12.5366519638731  34.9579326923077 12.9294265910523  Z " fill-rule="nonzero" fill="#ffff00" stroke="none" transform="matrix(1 0 0 1 340 230 )" />
  </g>
</svg>