<?xml version="1.0" encoding="utf-8"?>
<svg version="1.1" xmlns:xlink="http://www.w3.org/1999/xlink" width="70px" height="70px" xmlns="http://www.w3.org/2000/svg">
  <g transform="matrix(1 0 0 1 -69 -230 )">
    <path d="M 104 230  C 123.6 230  139 245.4  139 265  C 139 284.6  123.6 300  104 300  C 84.4 300  69 284.6  69 265  C 69 245.4  84.4 230  104 230  Z " fill-rule="nonzero" fill="#ffffff" stroke="none" />
    <path d="M 104 230.5  C 123.32 230.5  138.5 245.68  138.5 265  C 138.5 284.32  123.32 299.5  104 299.5  C 84.68 299.5  69.5 284.32  69.5 265  C 69.5 245.68  84.68 230.5  104 230.5  Z " stroke-width="1" stroke="#797979" fill="none" />
  </g>
</svg>