<?xml version="1.0" encoding="utf-8"?>
<svg version="1.1" xmlns:xlink="http://www.w3.org/1999/xlink" width="40px" height="40px" xmlns="http://www.w3.org/2000/svg">
  <g transform="matrix(1 0 0 1 -426 -347 )">
    <path d="M 446 347  C 457.2 347  466 355.8  466 367  C 466 378.2  457.2 387  446 387  C 434.8 387  426 378.2  426 367  C 426 355.8  434.8 347  446 347  Z " fill-rule="nonzero" fill="#ffffff" stroke="none" />
    <path d="M 446 347.5  C 456.92 347.5  465.5 356.08  465.5 367  C 465.5 377.92  456.92 386.5  446 386.5  C 435.08 386.5  426.5 377.92  426.5 367  C 426.5 356.08  435.08 347.5  446 347.5  Z " stroke-width="1" stroke="#797979" fill="none" />
  </g>
</svg>