<?xml version="1.0" encoding="utf-8"?>
<svg version="1.1" xmlns:xlink="http://www.w3.org/1999/xlink" width="20px" height="13px" xmlns="http://www.w3.org/2000/svg">
  <g transform="matrix(1 0 0 1 -446 -337 )">
    <path d="M 10.4166666666667 7.52408854166668  L 15.3993055555555 5.9921875  L 15.5555555555555 8.66666666666669  C 15.5787037037037 9.05598958333331  15.3414351851852 9.41710069444446  14.84375 9.75  C 14.3460648148148 10.0828993055555  13.666087962963 10.3466796875  12.8038194444445 10.5413411458333  C 11.9415509259259 10.7360026041667  11.0069444444445 10.8333333333333  10 10.8333333333333  C 8.99305555555554 10.8333333333333  8.05844907407408 10.7360026041667  7.19618055555554 10.5413411458333  C 6.33391203703701 10.3466796875  5.65393518518516 10.0828993055555  5.15625 9.75  C 4.65856481481484 9.41710069444446  4.4212962962963 9.05598958333331  4.44444444444446 8.66666666666669  L 4.60069444444446 5.9921875  L 9.58333333333331 7.52408854166668  C 9.71064814814815 7.56358506944446  9.84953703703707 7.58333333333332  10 7.58333333333332  C 10.150462962963 7.58333333333332  10.2893518518518 7.56358506944446  10.4166666666667 7.52408854166668  Z M 19.8090277777778 2.98763020833331  C 19.9363425925926 3.03276909722223  19.8090277777778 7.05577256944446  19.8090277777778 7.185546875  C 19.8090277777778 7.31532118055554  19.9363425925926 3.46723090277777  19.8090277777778 3.51236979166669  L 10.0868055555555 6.49153645833331  C 10.0636574074074 6.49717881944446  10.0347222222222 6.5  10 6.5  C 9.96527777777777 6.5  9.93634259259261 6.49717881944446  9.91319444444446 6.49153645833331  L 4.25347222222223 4.748046875  C 4.00462962962962 4.93988715277777  3.79918981481484 5.25444878472223  3.63715277777777 5.69173177083331  C 3.47511574074076 6.12901475694446  3.37673611111109 6.63259548611108  3.34201388888891 7.20247395833332  C 3.70659722222223 7.40559895833332  3.88888888888891 7.71310763888892  3.88888888888891 8.125  C 3.88888888888891 8.51432291666669  3.72106481481484 8.81618923611109  3.38541666666669 9.03059895833331  L 3.88888888888891 12.6953125  C 3.90046296296299 12.7743055555555  3.87731481481484 12.8448350694445  3.81944444444446 12.9069010416667  C 3.76736111111109 12.9689670138889  3.69791666666669 13  3.61111111111109 13  L 1.94444444444446 13  C 1.85763888888891 13  1.78819444444446 12.9689670138889  1.73611111111109 12.9069010416667  C 1.67824074074076 12.8448350694445  1.65509259259261 12.7743055555555  1.66666666666669 12.6953125  L 2.17013888888891 9.03059895833331  C 1.83449074074076 8.81618923611109  1.66666666666669 8.51432291666669  1.66666666666669 8.125  C 1.66666666666669 7.71310763888892  1.85474537037038 7.39995659722223  2.23090277777777 7.185546875  C 2.29456018518516 6.017578125  2.578125 5.08658854166669  3.08159722222223 4.392578125  L 0.190972222222229 3.51236979166669  C 0.0636574074073906 3.46723090277777  0 3.37977430555554  0 3.25  C 0 3.12022569444446  0.0636574074073906 3.03276909722223  0.190972222222229 2.98763020833331  L 9.91319444444446 0.00846354166668561  C 9.93634259259261 0.00282118055554292  9.96527777777777 0  10 0  C 10.0347222222222 0  10.0636574074074 0.00282118055554292  10.0868055555555 0.00846354166668561  L 19.8090277777778 2.98763020833331  Z " fill-rule="nonzero" fill="#000000" stroke="none" transform="matrix(1 0 0 1 446 337 )" />
  </g>
</svg>