<?xml version="1.0" encoding="utf-8"?>
<svg version="1.1" xmlns:xlink="http://www.w3.org/1999/xlink" width="17px" height="19px" xmlns="http://www.w3.org/2000/svg">
  <g transform="matrix(1 0 0 1 -486 -86 )">
    <path d="M 1.30769230769231 14.5892857142857  L 1.30769230769231 17.6428571428571  L 4.25 17.6428571428571  L 4.25 14.5892857142857  L 1.30769230769231 14.5892857142857  Z M 4.90384615384615 14.5892857142857  L 4.90384615384615 17.6428571428571  L 8.17307692307692 17.6428571428571  L 8.17307692307692 14.5892857142857  L 4.90384615384615 14.5892857142857  Z M 1.30769230769231 10.5178571428571  L 1.30769230769231 13.9107142857143  L 4.25 13.9107142857143  L 4.25 10.5178571428571  L 1.30769230769231 10.5178571428571  Z M 4.90384615384615 10.5178571428571  L 4.90384615384615 13.9107142857143  L 8.17307692307692 13.9107142857143  L 8.17307692307692 10.5178571428571  L 4.90384615384615 10.5178571428571  Z M 1.30769230769231 6.78571428571428  L 1.30769230769231 9.83928571428571  L 4.25 9.83928571428571  L 4.25 6.78571428571428  L 1.30769230769231 6.78571428571428  Z M 8.82692307692308 14.5892857142857  L 8.82692307692308 17.6428571428571  L 12.0961538461538 17.6428571428571  L 12.0961538461538 14.5892857142857  L 8.82692307692308 14.5892857142857  Z M 4.90384615384615 6.78571428571428  L 4.90384615384615 9.83928571428571  L 8.17307692307692 9.83928571428571  L 8.17307692307692 6.78571428571428  L 4.90384615384615 6.78571428571428  Z M 12.75 14.5892857142857  L 12.75 17.6428571428571  L 15.6923076923077 17.6428571428571  L 15.6923076923077 14.5892857142857  L 12.75 14.5892857142857  Z M 8.82692307692308 10.5178571428571  L 8.82692307692308 13.9107142857143  L 12.0961538461538 13.9107142857143  L 12.0961538461538 10.5178571428571  L 8.82692307692308 10.5178571428571  Z M 5.13371394230769 4.98856026785714  C 5.19841746794872 4.92140997023809  5.23076923076923 4.84188988095238  5.23076923076923 4.75  L 5.23076923076923 1.69642857142857  C 5.23076923076923 1.60453869047619  5.19841746794872 1.52501860119048  5.13371394230769 1.45786830357143  C 5.06901041666667 1.39071800595238  4.99238782051282 1.35714285714286  4.90384615384615 1.35714285714286  L 4.25 1.35714285714286  C 4.16145833333333 1.35714285714286  4.08483573717949 1.39071800595238  4.02013221153846 1.45786830357143  C 3.95542868589744 1.52501860119048  3.92307692307692 1.60453869047619  3.92307692307692 1.69642857142857  L 3.92307692307692 4.75  C 3.92307692307692 4.84188988095238  3.95542868589744 4.92140997023809  4.02013221153846 4.98856026785714  C 4.08483573717949 5.05571056547619  4.16145833333333 5.08928571428572  4.25 5.08928571428572  L 4.90384615384615 5.08928571428572  C 4.99238782051282 5.08928571428572  5.06901041666667 5.05571056547619  5.13371394230769 4.98856026785714  Z M 12.75 10.5178571428571  L 12.75 13.9107142857143  L 15.6923076923077 13.9107142857143  L 15.6923076923077 10.5178571428571  L 12.75 10.5178571428571  Z M 8.82692307692308 6.78571428571428  L 8.82692307692308 9.83928571428571  L 12.0961538461538 9.83928571428571  L 12.0961538461538 6.78571428571428  L 8.82692307692308 6.78571428571428  Z M 12.75 6.78571428571428  L 12.75 9.83928571428571  L 15.6923076923077 9.83928571428571  L 15.6923076923077 6.78571428571428  L 12.75 6.78571428571428  Z M 12.9798677884615 4.98856026785714  C 13.0445713141026 4.92140997023809  13.0769230769231 4.84188988095238  13.0769230769231 4.75  L 13.0769230769231 1.69642857142857  C 13.0769230769231 1.60453869047619  13.0445713141026 1.52501860119048  12.9798677884615 1.45786830357143  C 12.9151642628205 1.39071800595238  12.8385416666667 1.35714285714286  12.75 1.35714285714286  L 12.0961538461538 1.35714285714286  C 12.0076121794872 1.35714285714286  11.9309895833333 1.39071800595238  11.8662860576923 1.45786830357143  C 11.8015825320513 1.52501860119048  11.7692307692308 1.60453869047619  11.7692307692308 1.69642857142857  L 11.7692307692308 4.75  C 11.7692307692308 4.84188988095238  11.8015825320513 4.92140997023809  11.8662860576923 4.98856026785714  C 11.9309895833333 5.05571056547619  12.0076121794872 5.08928571428572  12.0961538461538 5.08928571428572  L 12.75 5.08928571428572  C 12.8385416666667 5.08928571428572  12.9151642628205 5.05571056547619  12.9798677884615 4.98856026785714  Z M 16.6117788461538 3.1171875  C 16.8705929487179 3.38578869047619  17 3.70386904761905  17 4.07142857142857  L 17 17.6428571428571  C 17 18.0104166666667  16.8705929487179 18.3284970238095  16.6117788461538 18.5970982142857  C 16.3529647435897 18.8656994047619  16.0464743589744 19  15.6923076923077 19  L 1.30769230769231 19  C 0.953525641025641 19  0.647035256410256 18.8656994047619  0.388221153846154 18.5970982142857  C 0.129407051282051 18.3284970238095  0 18.0104166666667  0 17.6428571428571  L 0 4.07142857142857  C 0 3.70386904761905  0.129407051282051 3.38578869047619  0.388221153846154 3.1171875  C 0.647035256410256 2.84858630952381  0.953525641025641 2.71428571428572  1.30769230769231 2.71428571428572  L 2.61538461538462 2.71428571428572  L 2.61538461538462 1.69642857142857  C 2.61538461538462 1.22991071428572  2.77544070512821 0.830543154761904  3.09555288461538 0.498325892857143  C 3.41566506410256 0.166108630952381  3.80048076923077 0  4.25 0  L 4.90384615384615 0  C 5.35336538461538 0  5.73818108974359 0.166108630952381  6.05829326923077 0.498325892857143  C 6.37840544871795 0.830543154761904  6.53846153846154 1.22991071428572  6.53846153846154 1.69642857142857  L 6.53846153846154 2.71428571428572  L 10.4615384615385 2.71428571428572  L 10.4615384615385 1.69642857142857  C 10.4615384615385 1.22991071428572  10.6215945512821 0.830543154761904  10.9417067307692 0.498325892857143  C 11.2618189102564 0.166108630952381  11.6466346153846 0  12.0961538461538 0  L 12.75 0  C 13.1995192307692 0  13.5843349358974 0.166108630952381  13.9044471153846 0.498325892857143  C 14.2245592948718 0.830543154761904  14.3846153846154 1.22991071428572  14.3846153846154 1.69642857142857  L 14.3846153846154 2.71428571428572  L 15.6923076923077 2.71428571428572  C 16.0464743589744 2.71428571428572  16.3529647435897 2.84858630952381  16.6117788461538 3.1171875  Z " fill-rule="nonzero" fill="#d7d7d7" stroke="none" transform="matrix(1 0 0 1 486 86 )" />
  </g>
</svg>